<svg xmlns="http://www.w3.org/2000/svg" width="512" height="499.2" viewBox="0 0 512 499.2"><path d="M421.335,499.2H90.665A90.585,90.585,0,0,1,0,408.535V90.665A90.585,90.585,0,0,1,90.665,0h330.67A90.585,90.585,0,0,1,512,90.665v317.87A90.585,90.585,0,0,1,421.335,499.2Z" fill="#ff26be"/><path d="M496.085,560.72H181.635A77.571,77.571,0,0,1,104.2,483.285V181.635A77.571,77.571,0,0,1,181.635,104.2H495.88a77.427,77.427,0,0,1,77.435,77.435V483.08a77.31,77.31,0,0,1-77.23,77.64Z" transform="translate(-82.86 -82.86)" fill="#2e001f"/><path d="M573.556,704.989l59.74,114.77c1.065,1.7.43,3.42-1.29,3.42h-37.13c-2.355,0-3.42-.635-4.485-2.765-13.66-28.16-27.525-56.32-41.82-86.61h-.43c-12.8,28.59-26.89,58.675-40.53,86.835-1.065,1.7-2.13,2.355-3.85,2.355H468.6c-2.13,0-2.355-1.7-1.27-2.99l58.45-111.37-56.525-112.64c-1.29-1.7,0-2.99,1.27-2.99h36.7c2.13,0,2.99.43,3.83,2.355,13.435,28.16,27.1,57.18,39.9,85.545h.43c12.37-28.16,26.03-57.385,39.26-85.34,1.065-1.7,1.7-2.765,3.85-2.765h34.345c1.7,0,2.355,1.29,1.29,2.99Zm70.205,34.775c0-49.7,33.075-88.535,85.545-88.535a94.049,94.049,0,0,1,11.1.43V595.135a2.126,2.126,0,0,1,2.13-2.13h33.71c1.7,0,2.13.635,2.13,1.7v195.85a152.366,152.366,0,0,0,1.065,20.91c0,1.29-.43,1.7-1.7,2.355a127,127,0,0,1-54.62,12.37c-46.305.184-79.38-28.385-79.36-86.426Zm96.625-54.6a32.069,32.069,0,0,0-12.37-2.13c-26.89,0-45.65,20.685-45.65,55.05,0,39.26,19.21,55.05,43.315,55.05,5.12,0,10.67-.635,14.725-2.355V685.165Z" transform="translate(-371.112 -471.395)" fill="#ffd9f2"/></svg>