<svg xmlns="http://www.w3.org/2000/svg" xmlns:xlink="http://www.w3.org/1999/xlink" width="365.503" height="512" viewBox="0 0 365.503 512"><defs><linearGradient id="a" x1="-10.229" y1="13.597" x2="-10.229" y2="14.597" gradientUnits="objectBoundingBox"><stop offset="0.387" stop-color="#d1d3d4" stop-opacity="0"/><stop offset="1" stop-color="#d1d3d4"/></linearGradient><linearGradient id="b" x1="-9.516" y1="14.078" x2="-9.516" y2="15.078" xlink:href="#a"/><linearGradient id="c" x1="-5.39" y1="6.703" x2="-4.39" y2="6.703" gradientUnits="objectBoundingBox"><stop offset="0" stop-color="#e8e7e5"/><stop offset="1" stop-color="#fff"/></linearGradient><linearGradient id="d" x1="-4.964" y1="30.297" x2="-3.964" y2="30.297" xlink:href="#c"/></defs><g transform="translate(-101.646 -34.453)"><path d="M432.881,498.139,284.4,538.12,135.91,498.139l-34.264-371.21h365.5Z" transform="translate(0 8.333)" fill="#2062af"/><path d="M269.289,154.511V503.747l.336.092,120.162-32.357,27.736-316.97H269.289Z" transform="translate(15.106 10.819)" fill="#3c9cd7"/><path d="M193.983,80.724V58.629h32.236V34.453H169.807v68.333h56.412V80.724Zm90.224-22.094h22.537V34.453H250.327V58.629c7.548,7.548,11.484,11.161,22.4,22.077-6.382,0-22.4.023-22.4.022v22.057h56.418V80.724L284.208,58.629Zm79.962,0h22.536V34.453h-56.42V58.629c7.548,7.548,11.486,11.161,22.4,22.077-6.379,0-22.4.023-22.4.022v22.057h56.421V80.724L364.169,58.629Z" transform="translate(6.142 0)"/><path d="M277.953,243.575,171.678,287.836l3.524,43.821,102.751-43.933,109.3-46.731,4.532-44.828L277.953,243.575Z" transform="translate(6.311 14.572)" fill="#fff"/><path d="M171.677,283.917l3.524,43.821,102.751-43.933v-44.15Z" transform="translate(6.311 18.491)" fill="url(#a)"/><path d="M383,196.167,269.168,243.575v44.149l109.3-46.731Z" transform="translate(15.096 14.572)" fill="url(#b)"/><path d="M171.827,280.258l3.525,43.821,157.657.5-3.526,58.428L277.6,397.615l-49.87-12.592-3.022-36.266H178.374l6.045,70.012,93.69,27.7,93.182-27.2,12.089-139.014Z" transform="translate(6.324 22.15)" fill="url(#c)"/><path d="M277.953,280.258H171.678l3.524,43.821,102.751.328V280.258Zm0,117.217-.5.141-49.864-12.592-3.022-36.266H178.226l6.044,70.012,93.683,27.7Z" transform="translate(6.311 22.15)" opacity="0.05"/><path d="M162.9,196.167H392.576l-4.532,44.828H168.438l-5.54-44.828Z" transform="translate(5.519 14.572)" fill="url(#d)"/><path d="M278.744,196.167H162.9l5.54,44.828H278.744V196.167Z" transform="translate(5.519 14.572)" opacity="0.05"/></g></svg>