<svg xmlns="http://www.w3.org/2000/svg" width="512" height="512" viewBox="0 0 512 512"><path d="M256,0C114.606,0,0,114.606,0,256S114.606,512,256,512,512,397.394,512,256,397.394,0,256,0ZM55.009,258.662,253.338,456.991C144.425,455.578,56.422,367.575,55.009,258.662ZM300.995,451.973,60.027,211.005C80.466,121.651,160.44,54.968,256,54.968a200.753,200.753,0,0,1,162.529,82.719L390.7,162.243A164.149,164.149,0,0,0,101.663,200.11L311.89,410.317A164.449,164.449,0,0,0,415.355,295.363H328.233V256H457.052c-.021,95.56-66.7,175.534-156.058,195.973Z" fill="#744c9e"/></svg>