<svg xmlns="http://www.w3.org/2000/svg" width="512.002" height="455.531" viewBox="0 0 512.002 455.531"><g transform="translate(-15.243 -14.516)"><path d="M436.212,162.161q-8.174-2.8-16.482-5.194,1.377-5.6,2.547-11.241C434.752,85.163,426.6,36.373,398.738,20.312c-26.708-15.4-70.391.657-114.509,39.049q-6.521,5.687-12.748,11.7-4.169-4-8.484-7.835C216.761,22.17,170.416,4.872,142.588,20.98,115.9,36.427,108,82.3,119.233,139.692q1.676,8.526,3.784,16.958c-6.558,1.863-12.891,3.847-18.95,5.959-54.206,18.9-88.824,48.518-88.824,79.239,0,31.732,37.161,63.559,93.624,82.856q6.867,2.336,13.845,4.328-2.266,9.082-4.022,18.279c-10.709,56.4-2.345,101.181,24.268,116.532,27.488,15.85,73.622-.442,118.547-39.71q5.326-4.656,10.684-9.848,6.743,6.506,13.84,12.628c43.515,37.444,86.49,52.565,113.081,37.172,27.463-15.9,36.386-64.006,24.8-122.537q-1.326-6.706-3.07-13.686,4.86-1.434,9.521-2.973c58.7-19.446,96.884-50.886,96.884-83.042,0-30.833-35.734-60.652-91.031-79.688Z" fill="#53c1de"/><path d="M411.261,291.94q-4.2,1.391-8.6,2.69a513.371,513.371,0,0,0-25.927-64.862,513.128,513.128,0,0,0,24.918-63.917q7.855,2.277,15.22,4.8c47.381,16.308,76.28,40.424,76.28,59,0,19.793-31.213,45.488-81.891,62.281Zm-21.028,41.668c5.123,25.881,5.855,49.282,2.461,67.575-3.05,16.437-9.182,27.4-16.763,31.784-16.136,9.34-50.643-2.8-87.855-34.823q-6.4-5.506-12.875-11.737a514.006,514.006,0,0,0,42.917-54.5,510.586,510.586,0,0,0,69.344-10.688q1.564,6.322,2.771,12.386ZM177.575,431.353c-15.764,5.567-28.32,5.726-35.908,1.35-16.152-9.313-22.863-45.273-13.707-93.5q1.633-8.55,3.739-17a514.324,514.324,0,0,0,69,9.988,532.236,532.236,0,0,0,43.95,54.3q-4.766,4.61-9.755,8.982c-19.865,17.366-39.772,29.684-57.314,35.881ZM103.722,291.817c-24.966-8.534-45.584-19.623-59.716-31.723C31.308,249.218,24.9,238.421,24.9,229.658c0-18.642,27.8-42.423,74.155-58.586q8.728-3.03,17.622-5.545a524.565,524.565,0,0,0,24.955,64.663,532.547,532.547,0,0,0-25.265,65.583q-6.367-1.822-12.639-3.956ZM128.48,123.3c-9.623-49.177-3.233-86.273,12.848-95.581,17.13-9.916,55.005,4.224,94.927,39.67q3.826,3.4,7.681,7.092a524.147,524.147,0,0,0-43.615,53.974A534.44,534.44,0,0,0,132,139.073q-1.958-7.842-3.519-15.775Zm220.853,54.534q-7.508-12.969-15.569-25.6c16.337,2.062,31.988,4.8,46.685,8.16a466.558,466.558,0,0,1-16.387,44.088q-7.1-13.467-14.728-26.643ZM259.269,90.111a467.76,467.76,0,0,1,30.13,36.373q-30.24-1.429-60.514-.014C238.832,113.353,249.022,101.17,259.269,90.111Zm-90.642,87.873q-7.534,13.068-14.452,26.477c-6.37-15.107-11.819-29.96-16.269-44.3,14.608-3.27,30.187-5.941,46.418-7.969q-8.15,12.712-15.7,25.8Zm16.163,130.7A465.713,465.713,0,0,1,137.6,301.1c4.521-14.6,10.09-29.77,16.6-45.2q6.946,13.416,14.516,26.493,7.723,13.337,16.074,26.294Zm75.084,62.062c-10.367-11.187-20.706-23.559-30.8-36.867q14.7.578,29.956.58,15.655,0,30.907-.687a465.128,465.128,0,0,1-30.058,36.974Zm104.4-115.635a464.524,464.524,0,0,1,17.194,45.04A464.169,464.169,0,0,1,333.7,308.3q8.118-12.869,15.719-26.054,7.725-13.4,14.849-27.128Zm-33.8,16.2q-11.634,20.21-24.563,39.631c-15.191,1.085-30.889,1.645-46.887,1.645-15.932,0-31.431-.5-46.356-1.464q-13.258-19.366-25.023-39.692-11.7-20.2-21.844-41.253,10.109-21.04,21.778-41.276h0q11.658-20.226,24.826-39.522c15.227-1.151,30.839-1.754,46.621-1.754,15.852,0,31.485.607,46.708,1.767q13.026,19.253,24.669,39.389,11.7,20.176,22.073,41.081-10.259,21.107-22,41.444ZM375.6,27.069c17.144,9.889,23.813,49.762,13.04,102.053q-1.059,5.11-2.3,10.179a523.962,523.962,0,0,0-68.458-10.815A513.815,513.815,0,0,0,274.6,74.47q5.752-5.545,11.774-10.8c37.8-32.9,73.128-45.885,89.225-36.6Z" transform="translate(12.219 12.191)" fill="#fff"/><path d="M153.764,94.665a45.721,45.721,0,1,1-45.72,45.72,45.721,45.721,0,0,1,45.72-45.72" transform="translate(117.479 101.465)" fill="#53c1de"/></g></svg>