<svg xmlns="http://www.w3.org/2000/svg" width="512" height="512" viewBox="0 0 512 512"><g transform="translate(0 12)"><path d="M256.09-12C397.415-11.91,512,102.585,512,243.91v.179C511.91,385.415,397.325,500,256,500,114.585,500,0,385.415,0,244S114.585-12,255.91-12Z" fill="#cd6c9c" fill-rule="evenodd"/><path d="M1151.159,961.36c3.769,13.818,3.32,26.65-.539,38.225-.448,1.256-.9,2.6-1.436,3.858l-1.615,3.769a68.644,68.644,0,0,1-11.845,17.228c-14.9,16.241-35.623,22.343-44.6,17.228-9.6-5.563-4.845-28.444,12.473-46.66,18.574-19.651,45.224-32.213,45.224-32.213v-.09c.808-.449,1.526-.808,2.333-1.256Zm211.494-231.683c-11.575-45.493-86.949-60.388-158.374-35.084-42.442,15.075-88.474,38.763-121.494,69.72-39.3,36.789-45.583,68.733-42.98,82.1,9.152,47.2,73.758,77.976,100.318,100.857v.179c-7.806,3.858-65.145,32.841-78.6,62.542-14.178,31.316,2.243,53.748,13.1,56.8,33.648,9.332,68.195-7.448,86.769-35.174,17.946-26.74,16.421-61.286,8.614-78.424,10.768-2.872,23.24-4.128,39.212-2.243,44.955,5.2,53.749,33.29,52.044,45.045s-11.126,18.215-14.267,20.1c-3.141,1.974-4.127,2.6-3.858,4.038.359,2.064,1.884,2.064,4.487,1.615,3.679-.628,23.6-9.511,24.406-31.226,1.077-27.547-25.3-58.235-71.964-57.427-19.2.359-31.316,2.154-40.02,5.384-.628-.718-1.346-1.436-1.974-2.153-28.893-30.778-82.193-52.582-79.95-93.948.808-15.075,6.012-54.646,102.472-102.741,78.962-39.392,142.222-28.534,153.169-4.487,15.613,34.277-33.828,98.075-115.841,107.228-31.227,3.5-47.737-8.614-51.774-13.1-4.308-4.756-4.935-4.935-6.551-4.038-2.6,1.436-.987,5.653,0,8.166,2.423,6.371,12.473,17.677,29.611,23.33,15.074,4.935,51.774,7.627,96.19-9.511,49.711-19.2,88.564-72.682,77.078-117.457Z" transform="translate(-946.036 -632.027)" fill="#fefefe"/></g></svg>